<svg width="1280" height="720" viewBox="0 0 1280 720" fill="none" xmlns="http://www.w3.org/2000/svg">
<g clip-path="url(#clip0_2_3146)">
<rect width="1280" height="720" fill="white"/>
<rect width="1280" height="720" fill="#808080"/>
<g clip-path="url(#clip1_2_3146)">
<rect width="1652.44" height="1871.01" transform="translate(655.932 -1059.9) rotate(34.5)" fill="#EBEBEB" fill-opacity="0.84"/>
<path d="M463.696 -788.359L487.368 -721.688L558.11 -723.469L581.8 -656.787L652.542 -658.568L676.214 -591.898L746.956 -593.679L770.646 -526.997L841.388 -528.778L865.077 -462.096L935.819 -463.877L959.492 -397.207L1030.23 -398.987L1053.92 -332.306L1124.68 -334.075L1148.37 -267.393L1219.11 -269.174L1242.8 -202.492L1313.55 -204.273L1337.23 -137.591L1407.99 -139.36L1431.68 -72.6788L1502.43 -74.4595L1526.11 -7.7778L1596.86 -9.55847L1620.56 57.1347L1691.3 55.3541L1715.01 122.047L1785.77 120.278L1809.48 186.971" stroke="#B8B8B8" stroke-width="5" stroke-miterlimit="10" stroke-linecap="round"/>
<path d="M63.3223 -205.812L86.9948 -139.142L157.737 -140.922L181.426 -74.2406L252.168 -76.0213L275.841 -9.35123L346.583 -11.1319L370.272 55.5497L441.015 53.769L464.704 120.451L535.446 118.67L559.119 185.34L629.861 183.559L653.55 250.241L724.309 248.472L747.998 315.154L818.741 313.373L842.43 380.055L913.172 378.274L936.861 444.956L1007.62 443.186L1031.31 509.868L1102.05 508.087L1125.74 574.769L1196.48 572.988L1220.19 639.682L1290.93 637.901L1314.64 704.594L1385.4 702.825L1409.1 769.518" stroke="#B8B8B8" stroke-width="5" stroke-miterlimit="10" stroke-linecap="round"/>
<path d="M275.272 -514.201L298.945 -447.531L369.687 -449.311L393.376 -382.63L464.118 -384.41L487.791 -317.74L558.533 -319.521L582.222 -252.839L652.964 -254.62L676.654 -187.938L747.396 -189.719L771.068 -123.049L841.811 -124.83L865.5 -58.1479L936.259 -59.917L959.948 6.76461L1030.69 4.98395L1054.38 71.6656L1125.12 69.8849L1148.81 136.567L1219.57 134.797L1243.26 201.479L1314 199.698L1337.69 266.38L1408.43 264.599L1432.14 331.293L1502.88 329.512L1526.59 396.205L1597.35 394.436L1621.05 461.129" stroke="#B8B8B8" stroke-width="5" stroke-miterlimit="10" stroke-linecap="round"/>
<path d="M-124.995 68.1918L-101.429 135.016L-30.5804 133.081L-6.9971 199.917L63.8511 197.982L87.4176 264.807L158.266 262.872L181.849 329.707L252.697 327.773L276.281 394.608L347.129 392.674L370.695 459.498L441.543 457.563L465.127 524.399L535.992 522.475L559.575 589.311L630.423 587.376L654.007 654.212L724.855 652.277L748.438 719.113L819.303 717.19L842.886 784.026L913.734 782.091L937.318 848.927L1008.17 846.992L1031.77 913.839L1102.61 911.904L1126.21 978.752L1197.08 976.828L1220.68 1043.68" stroke="#B8B8B8" stroke-width="5" stroke-miterlimit="10" stroke-linecap="round"/>
<path d="M557.907 -925.437L581.58 -858.767L652.322 -860.548L676.011 -793.866L746.753 -795.647L770.426 -728.977L841.168 -730.758L864.857 -664.076L935.6 -665.857L959.289 -599.175L1030.03 -600.956L1053.7 -534.286L1124.45 -536.066L1148.14 -469.385L1218.89 -471.154L1242.58 -404.472L1313.33 -406.253L1337.01 -339.571L1407.76 -341.352L1431.45 -274.67L1502.21 -276.439L1525.89 -209.758L1596.64 -211.538L1620.33 -144.857L1691.07 -146.637L1714.77 -79.9441L1785.52 -81.7248L1809.22 -15.0316L1879.98 -16.8008L1903.69 49.8925" stroke="#B8B8B8" stroke-width="5" stroke-miterlimit="10" stroke-linecap="round"/>
<path d="M369.484 -651.28L393.156 -584.61L463.899 -586.39L487.588 -519.709L558.33 -521.489L582.003 -454.819L652.745 -456.6L676.434 -389.918L747.176 -391.699L770.866 -325.017L841.608 -326.798L865.28 -260.128L936.022 -261.909L959.712 -195.227L1030.47 -196.996L1054.16 -130.314L1124.9 -132.095L1148.59 -65.4134L1219.33 -67.1941L1243.02 -0.512422L1313.78 -2.28159L1337.47 64.4001L1408.21 62.6194L1431.9 129.301L1502.65 127.52L1526.35 194.214L1597.09 192.433L1620.8 259.126L1691.56 257.357L1715.26 324.05" stroke="#B8B8B8" stroke-width="5" stroke-miterlimit="10" stroke-linecap="round"/>
<path d="M-30.7834 -68.887L-7.21692 -2.06272L63.6312 -3.99761L87.2146 62.8382L158.063 60.9034L181.629 127.728L252.477 125.793L276.061 192.629L346.909 190.694L370.492 257.53L441.34 255.595L464.907 322.419L535.755 320.484L559.338 387.32L630.203 385.397L653.787 452.232L724.635 450.298L748.218 517.133L819.066 515.199L842.65 582.034L913.515 580.111L937.098 646.947L1007.95 645.012L1031.53 711.848L1102.38 709.913L1125.98 776.76L1196.83 774.826L1220.43 841.673L1291.29 839.75L1314.89 906.597" stroke="#B8B8B8" stroke-width="5" stroke-miterlimit="10" stroke-linecap="round"/>
<path d="M181.166 -377.276L204.733 -310.452L275.581 -312.387L299.164 -245.551L370.013 -247.486L393.579 -180.661L464.427 -182.596L488.011 -115.76L558.859 -117.695L582.442 -50.8595L653.29 -52.7943L676.857 14.03L747.705 12.0951L771.288 78.9309L842.153 77.0076L865.737 143.843L936.585 141.909L960.168 208.744L1031.02 206.81L1054.6 273.645L1125.46 271.722L1149.05 338.558L1219.9 336.623L1243.48 403.459L1314.33 401.524L1337.93 468.371L1408.78 466.437L1432.38 533.284L1503.24 531.361L1526.84 598.208" stroke="#B8B8B8" stroke-width="5" stroke-miterlimit="10" stroke-linecap="round"/>
<path d="M-219.207 205.271L-195.535 271.941L-124.792 270.16L-101.103 336.842L-30.3609 335.061L-6.68837 401.731L64.0538 399.951L87.7431 466.632L158.485 464.852L182.175 531.533L252.917 529.753L276.589 596.423L347.331 594.642L371.021 661.324L441.78 659.555L465.469 726.236L536.211 724.456L559.901 791.137L630.643 789.357L654.332 856.038L725.091 854.269L748.78 920.951L819.523 919.17L843.212 985.852L913.954 984.071L937.66 1050.76L1008.4 1048.98L1032.11 1115.68L1102.87 1113.91L1126.57 1180.6" stroke="#B8B8B8" stroke-width="5" stroke-miterlimit="10" stroke-linecap="round"/>
<path d="M-313.419 342.35L-289.746 409.02L-219.004 407.239L-195.315 473.921L-124.572 472.14L-100.9 538.81L-30.1577 537.029L-6.46842 603.711L64.2738 601.93L87.9631 668.612L158.705 666.831L182.378 733.501L253.12 731.721L276.809 798.402L347.568 796.633L371.258 863.315L442 861.534L465.689 928.216L536.431 926.435L560.121 993.117L630.879 991.348L654.569 1058.03L725.311 1056.25L749 1122.93L819.743 1121.15L843.449 1187.84L914.191 1186.06L937.897 1252.76L1008.66 1250.99L1032.36 1317.68" stroke="#B8B8B8" stroke-width="5" stroke-miterlimit="10" stroke-linecap="round"/>
<path d="M416.643 -719.896L440.315 -653.226L511.057 -655.007L534.747 -588.325L605.489 -590.106L629.161 -523.436L699.904 -525.216L723.593 -458.535L794.335 -460.315L818.024 -393.634L888.767 -395.414L912.439 -328.744L983.181 -330.525L1006.87 -263.843L1077.63 -265.612L1101.32 -198.931L1172.06 -200.711L1195.75 -134.03L1266.49 -135.811L1290.18 -69.1289L1360.94 -70.898L1384.63 -4.21636L1455.37 -5.99709L1479.06 60.6846L1549.8 58.9039L1573.51 125.597L1644.25 123.816L1667.96 190.51L1738.72 188.74L1762.42 255.434" stroke="#B8B8B8" stroke-width="5" stroke-miterlimit="10" stroke-linecap="round"/>
<path d="M16.2694 -137.349L39.9419 -70.6793L110.684 -72.46L134.373 -5.77835L205.116 -7.55905L228.788 59.111L299.53 57.3304L323.22 124.012L393.962 122.231L417.651 188.913L488.393 187.132L512.066 253.802L582.808 252.022L606.497 318.703L677.256 316.934L700.946 383.616L771.688 381.835L795.377 448.517L866.119 446.736L889.809 513.418L960.567 511.649L984.257 578.33L1055 576.55L1078.69 643.231L1149.43 641.451L1173.14 708.144L1243.88 706.363L1267.58 773.056L1338.34 771.287L1362.05 837.98" stroke="#B8B8B8" stroke-width="5" stroke-miterlimit="10" stroke-linecap="round"/>
<path d="M228.219 -445.738L251.892 -379.068L322.634 -380.849L346.323 -314.167L417.065 -315.948L440.738 -249.278L511.48 -251.059L535.169 -184.377L605.912 -186.158L629.601 -119.476L700.343 -121.257L724.016 -54.5866L794.758 -56.3673L818.447 10.3144L889.206 8.54523L912.895 75.2269L983.638 73.4462L1007.33 140.128L1078.07 138.347L1101.76 205.029L1172.52 203.26L1196.21 269.941L1266.95 268.161L1290.64 334.842L1361.38 333.062L1385.09 399.755L1455.83 397.974L1479.53 464.667L1550.29 462.898L1574 529.591" stroke="#B8B8B8" stroke-width="5" stroke-miterlimit="10" stroke-linecap="round"/>
<path d="M-172.154 136.809L-148.482 203.479L-77.7394 201.698L-54.0501 268.38L16.6921 266.599L40.3646 333.269L111.107 331.488L134.796 398.17L205.538 396.389L229.228 463.071L299.97 461.29L323.642 527.96L394.384 526.18L418.074 592.861L488.833 591.092L512.522 657.774L583.264 655.993L606.954 722.675L677.696 720.894L701.385 787.576L772.144 785.807L795.833 852.488L866.575 850.708L890.265 917.389L961.007 915.609L984.713 982.302L1055.46 980.521L1079.16 1047.21L1149.92 1045.45L1173.63 1112.14" stroke="#B8B8B8" stroke-width="5" stroke-miterlimit="10" stroke-linecap="round"/>
<path d="M510.854 -856.975L534.421 -790.151L605.269 -792.086L628.852 -725.25L699.701 -727.185L723.267 -660.36L794.115 -662.295L817.699 -595.459L888.547 -597.394L912.13 -530.558L982.978 -532.493L1006.54 -465.669L1077.39 -467.604L1100.98 -400.768L1171.84 -402.691L1195.42 -335.855L1266.27 -337.79L1289.86 -270.954L1360.7 -272.889L1384.29 -206.054L1455.15 -207.977L1478.74 -141.141L1549.58 -143.076L1573.17 -76.2401L1644.02 -78.1749L1667.62 -11.3275L1738.46 -13.2624L1762.06 53.585L1832.93 51.6616L1856.53 118.509" stroke="#B8B8B8" stroke-width="5" stroke-miterlimit="10" stroke-linecap="round"/>
<path d="M322.431 -582.817L346.104 -516.147L416.846 -517.928L440.535 -451.246L511.277 -453.027L534.95 -386.357L605.692 -388.137L629.381 -321.456L700.123 -323.237L723.813 -256.555L794.555 -258.336L818.227 -191.665L888.97 -193.446L912.659 -126.764L983.418 -128.534L1007.11 -61.852L1077.85 -63.6326L1101.54 3.04902L1172.28 1.26833L1195.97 67.95L1266.73 66.1808L1290.42 132.863L1361.16 131.082L1384.85 197.763L1455.59 195.983L1479.3 262.676L1550.04 260.895L1573.75 327.588L1644.51 325.819L1668.21 392.513" stroke="#B8B8B8" stroke-width="5" stroke-miterlimit="10" stroke-linecap="round"/>
<path d="M-77.9423 -0.270569L-54.2698 66.3995L16.4724 64.6188L40.1617 131.301L110.904 129.52L134.576 196.19L205.319 194.409L229.008 261.091L299.75 259.31L323.439 325.992L394.182 324.211L417.854 390.881L488.596 389.101L512.286 455.782L583.045 454.013L606.734 520.695L677.476 518.914L701.165 585.596L771.908 583.815L795.597 650.497L866.356 648.728L890.045 715.409L960.787 713.628L984.477 780.31L1055.22 778.529L1078.92 845.223L1149.67 843.442L1173.37 910.135L1244.13 908.366L1267.84 975.059" stroke="#B8B8B8" stroke-width="5" stroke-miterlimit="10" stroke-linecap="round"/>
<path d="M134.007 -308.659L157.68 -241.989L228.422 -243.77L252.111 -177.088L322.854 -178.869L346.526 -112.199L417.268 -113.98L440.958 -47.2979L511.7 -49.0786L535.389 17.603L606.131 15.8224L629.804 82.4925L700.546 80.7118L724.235 147.393L794.994 145.624L818.684 212.306L889.426 210.525L913.115 277.207L983.857 275.426L1007.55 342.108L1078.31 340.339L1101.99 407.02L1172.74 405.24L1196.43 471.921L1267.17 470.141L1290.87 536.834L1361.62 535.053L1385.32 601.746L1456.08 599.977L1479.79 666.67" stroke="#B8B8B8" stroke-width="5" stroke-miterlimit="10" stroke-linecap="round"/>
<path d="M-266.366 273.887L-242.693 340.557L-171.951 338.777L-148.262 405.458L-77.5194 403.678L-53.8469 470.348L16.8953 468.567L40.5846 535.249L111.327 533.468L135.016 600.15L205.758 598.369L229.431 665.039L300.173 663.258L323.862 729.94L394.621 728.171L418.311 794.852L489.053 793.072L512.742 859.753L583.484 857.973L607.174 924.654L677.932 922.885L701.622 989.567L772.364 987.786L796.053 1054.47L866.796 1052.69L890.502 1119.38L961.244 1117.6L984.95 1184.29L1055.71 1182.52L1079.42 1249.22" stroke="#B8B8B8" stroke-width="5" stroke-miterlimit="10" stroke-linecap="round"/>
<path d="M-360.577 410.966L-336.905 477.636L-266.163 475.855L-242.473 542.537L-171.731 540.756L-148.059 607.427L-77.3165 605.646L-53.6272 672.327L17.1149 670.547L40.8042 737.228L111.546 735.448L135.219 802.118L205.961 800.337L229.65 867.019L300.409 865.25L324.099 931.931L394.841 930.151L418.53 996.832L489.272 995.052L512.962 1061.73L583.721 1059.96L607.41 1126.65L678.152 1124.87L701.841 1191.55L772.584 1189.77L796.29 1256.46L867.032 1254.68L890.738 1321.37L961.497 1319.6L985.203 1386.3" stroke="#B8B8B8" stroke-width="5" stroke-miterlimit="10" stroke-linecap="round"/>
<path d="M440.169 -754.127L463.842 -687.457L534.584 -689.238L558.273 -622.556L629.015 -624.337L652.688 -557.667L723.43 -559.448L747.119 -492.766L817.861 -494.547L841.551 -427.865L912.293 -429.646L935.965 -362.976L1006.71 -364.756L1030.4 -298.075L1101.16 -299.844L1124.85 -233.162L1195.59 -234.943L1219.28 -168.261L1290.02 -170.042L1313.71 -103.36L1384.47 -105.129L1408.16 -38.4476L1478.9 -40.2283L1502.59 26.4534L1573.33 24.6727L1597.04 91.3659L1667.78 89.5853L1691.48 156.278L1762.24 154.509L1785.95 221.203" stroke="#B8B8B8" stroke-width="5" stroke-miterlimit="10" stroke-linecap="round"/>
<path d="M39.7959 -171.581L63.4684 -104.91L134.211 -106.691L157.9 -40.0095L228.642 -41.7902L252.315 24.8799L323.057 23.0992L346.746 89.7809L417.488 88.0002L441.178 154.682L511.92 152.901L535.592 219.571L606.334 217.791L630.024 284.472L700.783 282.703L724.472 349.385L795.214 347.604L818.904 414.286L889.646 412.505L913.335 479.187L984.094 477.418L1007.78 544.099L1078.53 542.318L1102.21 609L1172.96 607.219L1196.66 673.913L1267.41 672.132L1291.11 738.825L1361.87 737.056L1385.58 803.749" stroke="#B8B8B8" stroke-width="5" stroke-miterlimit="10" stroke-linecap="round"/>
<path d="M251.746 -479.969L275.418 -413.299L346.16 -415.08L369.85 -348.398L440.592 -350.179L464.264 -283.509L535.007 -285.29L558.696 -218.608L629.438 -220.389L653.127 -153.707L723.87 -155.488L747.542 -88.8177L818.284 -90.5984L841.974 -23.9167L912.733 -25.6858L936.422 40.9958L1007.16 39.2151L1030.85 105.897L1101.6 104.116L1125.28 170.798L1196.04 169.029L1219.73 235.71L1290.48 233.93L1314.16 300.611L1384.91 298.831L1408.61 365.524L1479.36 363.743L1503.06 430.436L1573.82 428.667L1597.53 495.36" stroke="#B8B8B8" stroke-width="5" stroke-miterlimit="10" stroke-linecap="round"/>
<path d="M-148.628 102.577L-124.955 169.247L-54.2129 167.467L-30.5236 234.148L40.2186 232.368L63.8911 299.038L134.633 297.257L158.323 363.939L229.065 362.158L252.754 428.84L323.496 427.059L347.169 493.729L417.911 491.948L441.6 558.63L512.359 556.861L536.049 623.542L606.791 621.762L630.48 688.443L701.222 686.663L724.912 753.344L795.67 751.575L819.36 818.257L890.102 816.476L913.791 883.158L984.534 881.377L1008.24 948.07L1078.98 946.29L1102.69 1012.98L1173.45 1011.21L1197.15 1077.91" stroke="#B8B8B8" stroke-width="5" stroke-miterlimit="10" stroke-linecap="round"/>
<path d="M534.381 -891.206L558.053 -824.536L628.795 -826.317L652.485 -759.635L723.227 -761.416L746.899 -694.746L817.642 -696.526L841.331 -629.845L912.073 -631.625L935.762 -564.944L1006.5 -566.724L1030.18 -500.054L1100.92 -501.835L1124.61 -435.153L1195.37 -436.923L1219.06 -370.241L1289.8 -372.022L1313.49 -305.34L1384.23 -307.121L1407.92 -240.439L1478.68 -242.208L1502.37 -175.526L1573.11 -177.307L1596.8 -110.625L1667.54 -112.406L1691.25 -45.7129L1761.99 -47.4936L1785.7 19.1996L1856.46 17.4304L1880.16 84.1237" stroke="#B8B8B8" stroke-width="5" stroke-miterlimit="10" stroke-linecap="round"/>
<path d="M345.957 -617.048L369.63 -550.378L440.372 -552.159L464.061 -485.477L534.804 -487.258L558.476 -420.588L629.218 -422.369L652.908 -355.687L723.65 -357.468L747.339 -290.786L818.081 -292.567L841.754 -225.897L912.496 -227.677L936.185 -160.996L1006.94 -162.765L1030.63 -96.083L1101.38 -97.8637L1125.07 -31.1821L1195.81 -32.9628L1219.5 33.7189L1290.26 31.9497L1313.94 98.6314L1384.69 96.8507L1408.38 163.532L1479.12 161.752L1502.82 228.445L1573.57 226.664L1597.27 293.357L1668.03 291.588L1691.74 358.282" stroke="#B8B8B8" stroke-width="5" stroke-miterlimit="10" stroke-linecap="round"/>
<path d="M-54.4159 -34.5017L-30.7434 32.1684L39.9988 30.3877L63.6881 97.0694L134.43 95.2887L158.103 161.959L228.845 160.178L252.534 226.86L323.276 225.079L346.966 291.761L417.708 289.98L441.38 356.65L512.123 354.869L535.812 421.551L606.571 419.782L630.26 486.464L701.002 484.683L724.692 551.365L795.434 549.584L819.123 616.266L889.882 614.496L913.572 681.178L984.314 679.397L1008 746.079L1078.75 744.298L1102.45 810.992L1173.19 809.211L1196.9 875.904L1267.66 874.135L1291.36 940.828" stroke="#B8B8B8" stroke-width="5" stroke-miterlimit="10" stroke-linecap="round"/>
<path d="M157.534 -342.891L181.207 -276.221L251.949 -278.001L275.638 -211.32L346.38 -213.1L370.053 -146.43L440.795 -148.211L464.484 -81.5292L535.226 -83.3099L558.916 -16.6283L629.658 -18.409L653.33 48.2611L724.073 46.4804L747.762 113.162L818.521 111.393L842.21 178.075L912.952 176.294L936.642 242.976L1007.38 241.195L1031.07 307.877L1101.83 306.107L1125.52 372.789L1196.26 371.008L1219.95 437.69L1290.7 435.909L1314.4 502.603L1385.14 500.822L1408.85 567.515L1479.61 565.746L1503.31 632.439" stroke="#B8B8B8" stroke-width="5" stroke-miterlimit="10" stroke-linecap="round"/>
<path d="M-242.733 239.502L-219.167 306.326L-148.319 304.391L-124.735 371.227L-53.8871 369.292L-30.3206 436.117L40.5276 434.182L64.1109 501.017L134.959 499.083L158.542 565.918L229.391 563.984L252.957 630.808L323.805 628.873L347.389 695.709L418.254 693.785L441.837 760.621L512.685 758.686L536.268 825.522L607.117 823.587L630.7 890.423L701.565 888.5L725.148 955.336L795.996 953.401L819.58 1020.24L890.428 1018.3L914.028 1085.15L984.876 1083.21L1008.48 1150.06L1079.34 1148.14L1102.94 1214.99" stroke="#B8B8B8" stroke-width="5" stroke-miterlimit="10" stroke-linecap="round"/>
<path d="M-336.945 376.581L-313.379 443.405L-242.53 441.47L-218.947 508.306L-148.099 506.371L-124.532 573.195L-53.6842 571.261L-30.1009 638.096L40.7473 636.162L64.3306 702.997L135.179 701.063L158.745 767.887L229.593 765.952L253.177 832.788L324.042 830.864L347.625 897.7L418.473 895.765L442.057 962.601L512.905 960.666L536.488 1027.5L607.353 1025.58L630.936 1092.41L701.784 1090.48L725.368 1157.32L796.216 1155.38L819.816 1222.23L890.664 1220.29L914.264 1287.14L985.129 1285.22L1008.73 1352.06" stroke="#B8B8B8" stroke-width="5" stroke-miterlimit="10" stroke-linecap="round"/>
<path d="M581.434 -959.668L605.106 -892.998L675.848 -894.779L699.538 -828.097L770.28 -829.878L793.952 -763.208L864.695 -764.989L888.384 -698.307L959.126 -700.088L982.815 -633.406L1053.56 -635.187L1077.23 -568.517L1147.97 -570.297L1171.66 -503.616L1242.42 -505.385L1266.11 -438.703L1336.85 -440.484L1360.54 -373.802L1431.28 -375.583L1454.97 -308.901L1525.73 -310.67L1549.42 -243.989L1620.16 -245.769L1643.85 -179.088L1714.59 -180.868L1738.3 -114.175L1809.04 -115.956L1832.75 -49.2627L1903.51 -51.0319L1927.21 15.6614" stroke="#B8B8B8" stroke-width="5" stroke-miterlimit="10" stroke-linecap="round"/>
<path d="M393.116 -685.665L416.683 -618.841L487.531 -620.776L511.114 -553.94L581.962 -555.875L605.529 -489.05L676.377 -490.985L699.96 -424.149L770.809 -426.084L794.392 -359.248L865.24 -361.183L888.807 -294.359L959.655 -296.294L983.238 -229.458L1054.1 -231.381L1077.69 -164.545L1148.53 -166.48L1172.12 -99.6444L1242.97 -101.579L1266.55 -34.7435L1337.41 -36.6668L1361 30.169L1431.85 28.2341L1455.43 95.07L1526.28 93.1351L1549.88 159.983L1620.73 158.048L1644.33 224.895L1715.19 222.972L1738.79 289.819" stroke="#B8B8B8" stroke-width="5" stroke-miterlimit="10" stroke-linecap="round"/>
<path d="M-7.25696 -103.118L16.4155 -36.4482L87.1577 -38.2289L110.847 28.4527L181.589 26.672L205.262 93.3421L276.004 91.5614L299.693 158.243L370.435 156.462L394.125 223.144L464.867 221.363L488.539 288.033L559.282 286.253L582.971 352.934L653.73 351.165L677.419 417.847L748.161 416.066L771.851 482.748L842.593 480.967L866.282 547.649L937.041 545.88L960.73 612.561L1031.47 610.781L1055.16 677.462L1125.9 675.682L1149.61 742.375L1220.35 740.594L1244.06 807.287L1314.82 805.518L1338.52 872.211" stroke="#B8B8B8" stroke-width="5" stroke-miterlimit="10" stroke-linecap="round"/>
<path d="M204.693 -411.507L228.365 -344.837L299.108 -346.618L322.797 -279.936L393.539 -281.717L417.212 -215.047L487.954 -216.827L511.643 -150.146L582.385 -151.926L606.075 -85.2448L676.817 -87.0255L700.489 -20.3554L771.231 -22.1361L794.921 44.5456L865.68 42.7764L889.369 109.458L960.111 107.677L983.801 174.359L1054.54 172.578L1078.23 239.26L1148.99 237.491L1172.68 304.173L1243.42 302.392L1267.11 369.074L1337.85 367.293L1361.56 433.986L1432.3 432.205L1456.01 498.899L1526.77 497.129L1550.47 563.823" stroke="#B8B8B8" stroke-width="5" stroke-miterlimit="10" stroke-linecap="round"/>
<path d="M-195.68 171.04L-172.008 237.71L-101.266 235.929L-77.5764 302.611L-6.83425 300.83L16.8382 367.5L87.5804 365.719L111.27 432.401L182.012 430.62L205.701 497.302L276.443 495.521L300.116 562.191L370.858 560.411L394.547 627.092L465.306 625.323L488.996 692.005L559.738 690.224L583.427 756.906L654.169 755.125L677.859 821.807L748.618 820.038L772.307 886.719L843.049 884.939L866.738 951.62L937.481 949.84L961.187 1016.53L1031.93 1014.75L1055.64 1081.45L1126.39 1079.68L1150.1 1146.37" stroke="#B8B8B8" stroke-width="5" stroke-miterlimit="10" stroke-linecap="round"/>
<path d="M487.222 -822.59L510.894 -755.919L581.637 -757.7L605.326 -691.019L676.068 -692.799L699.741 -626.129L770.483 -627.91L794.172 -561.228L864.914 -563.009L888.604 -496.327L959.346 -498.108L983.018 -431.438L1053.76 -433.218L1077.45 -366.537L1148.21 -368.306L1171.9 -301.624L1242.64 -303.405L1266.33 -236.723L1337.07 -238.504L1360.76 -171.822L1431.52 -173.592L1455.21 -106.91L1525.95 -108.691L1549.64 -42.0089L1620.38 -43.7895L1644.09 22.9036L1714.83 21.123L1738.54 87.8162L1809.3 86.047L1833 152.74" stroke="#B8B8B8" stroke-width="5" stroke-miterlimit="10" stroke-linecap="round"/>
<path d="M86.9546 -240.197L110.521 -173.373L181.369 -175.308L204.953 -108.472L275.801 -110.407L299.367 -43.5824L370.215 -45.5173L393.799 21.3186L464.647 19.3837L488.23 86.2195L559.078 84.2846L582.645 151.109L653.493 149.174L677.076 216.01L747.941 214.087L771.525 280.922L842.373 278.988L865.956 345.823L936.804 343.889L960.388 410.724L1031.25 408.801L1054.84 475.637L1125.68 473.702L1149.27 540.538L1220.12 538.603L1243.72 605.45L1314.56 603.515L1338.16 670.363L1409.03 668.44L1432.63 735.287" stroke="#B8B8B8" stroke-width="5" stroke-miterlimit="10" stroke-linecap="round"/>
<path d="M298.904 -548.586L322.471 -481.762L393.319 -483.697L416.902 -416.861L487.751 -418.796L511.317 -351.971L582.165 -353.906L605.749 -287.07L676.597 -289.005L700.18 -222.169L771.028 -224.104L794.595 -157.28L865.443 -159.215L889.026 -92.3791L959.891 -94.3024L983.475 -27.4666L1054.32 -29.4014L1077.91 37.4344L1148.75 35.4995L1172.34 102.335L1243.2 100.412L1266.79 167.248L1337.63 165.313L1361.22 232.149L1432.07 230.214L1455.67 297.061L1526.51 295.127L1550.11 361.974L1620.98 360.051L1644.58 426.898" stroke="#B8B8B8" stroke-width="5" stroke-miterlimit="10" stroke-linecap="round"/>
<path d="M-101.469 33.9606L-77.7962 100.631L-7.05407 98.85L16.6352 165.532L87.3774 163.751L111.05 230.421L181.792 228.64L205.481 295.322L276.224 293.541L299.913 360.223L370.655 358.442L394.328 425.112L465.07 423.332L488.759 490.013L559.518 488.244L583.207 554.926L653.95 553.145L677.639 619.827L748.381 618.046L772.07 684.728L842.829 682.959L866.519 749.64L937.261 747.86L960.95 814.541L1031.69 812.761L1055.4 879.454L1126.14 877.673L1149.85 944.366L1220.61 942.597L1244.31 1009.29" stroke="#B8B8B8" stroke-width="5" stroke-miterlimit="10" stroke-linecap="round"/>
<path d="M110.481 -274.428L134.154 -207.758L204.896 -209.539L228.585 -142.857L299.327 -144.638L323 -77.9679L393.742 -79.7486L417.431 -13.067L488.174 -14.8477L511.863 51.834L582.605 50.0533L606.278 116.723L677.02 114.943L700.709 181.624L771.468 179.855L795.157 246.537L865.9 244.756L889.589 311.438L960.331 309.657L984.02 376.339L1054.78 374.57L1078.47 441.251L1149.21 439.471L1172.9 506.152L1243.64 504.372L1267.35 571.065L1338.09 569.284L1361.8 635.977L1432.56 634.208L1456.26 700.901" stroke="#B8B8B8" stroke-width="5" stroke-miterlimit="10" stroke-linecap="round"/>
<path d="M-289.892 308.118L-266.22 374.788L-195.477 373.008L-171.788 439.689L-101.046 437.909L-77.3734 504.579L-6.63123 502.798L17.0581 569.48L87.8002 567.699L111.49 634.381L182.232 632.6L205.904 699.27L276.646 697.489L300.336 764.171L371.095 762.402L394.784 829.084L465.526 827.303L489.216 893.985L559.958 892.204L583.647 958.886L654.406 957.116L678.095 1023.8L748.837 1022.02L772.527 1088.7L843.269 1086.92L866.975 1153.61L937.717 1151.83L961.423 1218.52L1032.18 1216.75L1055.89 1283.45" stroke="#B8B8B8" stroke-width="5" stroke-miterlimit="10" stroke-linecap="round"/>
<path d="M-384.104 445.197L-360.432 511.868L-289.689 510.087L-266 576.769L-195.258 574.988L-171.585 641.658L-100.843 639.877L-77.1538 706.559L-6.41167 704.778L17.2776 771.46L88.0198 769.679L111.692 836.349L182.434 834.569L206.124 901.25L276.883 899.481L300.572 966.163L371.314 964.382L395.004 1031.06L465.746 1029.28L489.435 1095.96L560.194 1094.2L583.883 1160.88L654.626 1159.1L678.315 1225.78L749.057 1224L772.763 1290.69L843.505 1288.91L867.211 1355.6L937.97 1353.83L961.677 1420.53" stroke="#B8B8B8" stroke-width="5" stroke-miterlimit="10" stroke-linecap="round"/>
</g>
<rect x="76" y="97" width="1129" height="527" fill="#FAF9F6" fill-opacity="0.53"/>
<path d="M196.61 253L194.764 245.266H182.225L180.233 253H166.551L181.024 210.988H196.727L210.35 253H196.61ZM188.641 220.129H188.348C188.309 220.598 188.172 221.369 187.938 222.443C187.704 223.518 186.522 228.127 184.393 236.271H192.42L189.491 224.846C189.08 223.166 188.797 221.594 188.641 220.129ZM248.827 253L234.003 232.727C232.831 231.125 231.874 229.68 231.132 228.391H231.015C231.132 230.461 231.191 232.785 231.191 235.363V253H219.472V210.988H231.425L245.634 230.266C245.81 230.52 246.025 230.822 246.279 231.174C246.532 231.525 246.786 231.887 247.04 232.258C247.294 232.629 247.529 232.99 247.743 233.342C247.978 233.693 248.154 234.006 248.271 234.279H248.388C248.271 233.42 248.212 231.936 248.212 229.826V210.988H259.931V253H248.827ZM298.76 253L296.914 245.266H284.375L282.383 253H268.701L283.174 210.988H298.877L312.5 253H298.76ZM290.791 220.129H290.498C290.459 220.598 290.322 221.369 290.088 222.443C289.854 223.518 288.672 228.127 286.543 236.271H294.57L291.641 224.846C291.23 223.166 290.947 221.594 290.791 220.129ZM292.344 207.092H283.525L292.285 197.688H302.773L292.344 207.092ZM321.622 253V210.988H334.278V243.098H348.751V253H321.622ZM358.283 253V210.988H370.939V253H358.283ZM412.58 240.285C412.58 243.078 411.829 245.51 410.325 247.58C408.84 249.65 406.75 251.193 404.055 252.209C401.36 253.225 398.118 253.732 394.329 253.732C389.934 253.732 385.911 252.99 382.258 251.506V239.992C384.016 241.281 385.959 242.326 388.088 243.127C390.217 243.908 392.2 244.299 394.036 244.299C395.422 244.299 396.496 244.055 397.258 243.566C398.02 243.059 398.401 242.326 398.401 241.369C398.401 240.686 398.205 240.09 397.815 239.582C397.444 239.055 396.868 238.566 396.086 238.117C395.325 237.668 393.899 237.053 391.809 236.271C385.051 233.674 381.672 229.475 381.672 223.674C381.672 219.611 383.215 216.369 386.301 213.947C389.387 211.506 393.528 210.285 398.723 210.285C400.188 210.285 401.536 210.344 402.766 210.461C403.996 210.578 405.11 210.725 406.106 210.9C407.121 211.076 408.538 211.408 410.354 211.896V222.59C406.819 220.656 403.342 219.689 399.924 219.689C398.518 219.689 397.385 219.953 396.526 220.48C395.666 221.008 395.237 221.73 395.237 222.648C395.237 223.527 395.579 224.26 396.262 224.846C396.965 225.412 398.42 226.154 400.627 227.072C404.983 228.83 408.059 230.754 409.856 232.844C411.672 234.934 412.58 237.414 412.58 240.285ZM421.937 253V210.988H448.099V220.891H434.593V227.014H447.279V236.916H434.593V243.098H449.066V253H421.937ZM519.751 231.467C519.751 235.725 518.852 239.494 517.055 242.775C515.278 246.037 512.729 248.557 509.409 250.334C506.089 252.111 502.261 253 497.925 253H480.141V210.988H497.544C512.348 210.988 519.751 217.814 519.751 231.467ZM506.304 231.584C506.304 229.533 505.884 227.688 505.044 226.047C504.223 224.406 503.042 223.137 501.499 222.238C499.956 221.34 498.139 220.891 496.05 220.891H492.798V243.098H496.343C499.37 243.098 501.782 242.062 503.579 239.992C505.395 237.902 506.304 235.1 506.304 231.584ZM529.869 253V210.988H556.031V220.891H542.525V227.014H555.211V236.916H542.525V243.098H556.998V253H529.869ZM617.253 240.285C617.253 243.078 616.501 245.51 614.997 247.58C613.513 249.65 611.423 251.193 608.728 252.209C606.032 253.225 602.79 253.732 599.001 253.732C594.607 253.732 590.583 252.99 586.931 251.506V239.992C588.689 241.281 590.632 242.326 592.761 243.127C594.89 243.908 596.872 244.299 598.708 244.299C600.095 244.299 601.169 244.055 601.931 243.566C602.693 243.059 603.073 242.326 603.073 241.369C603.073 240.686 602.878 240.09 602.488 239.582C602.116 239.055 601.54 238.566 600.759 238.117C599.997 237.668 598.572 237.053 596.482 236.271C589.724 233.674 586.345 229.475 586.345 223.674C586.345 219.611 587.888 216.369 590.974 213.947C594.06 211.506 598.2 210.285 603.396 210.285C604.861 210.285 606.208 210.344 607.439 210.461C608.669 210.578 609.782 210.725 610.779 210.9C611.794 211.076 613.21 211.408 615.027 211.896V222.59C611.491 220.656 608.015 219.689 604.597 219.689C603.191 219.689 602.058 219.953 601.198 220.48C600.339 221.008 599.909 221.73 599.909 222.648C599.909 223.527 600.251 224.26 600.935 224.846C601.638 225.412 603.093 226.154 605.3 227.072C609.655 228.83 612.732 230.754 614.529 232.844C616.345 234.934 617.253 237.414 617.253 240.285ZM652.947 253L651.102 245.266H638.562L636.57 253H622.889L637.361 210.988H653.064L666.688 253H652.947ZM644.979 220.129H644.686C644.646 220.598 644.51 221.369 644.275 222.443C644.041 223.518 642.859 228.127 640.73 236.271H648.758L645.828 224.846C645.418 223.166 645.135 221.594 644.979 220.129ZM697.05 220.891V253H684.335V220.891H672.587V210.988H708.944V220.891H697.05ZM718.213 253V210.988H730.869V253H718.213ZM772.51 240.285C772.51 243.078 771.758 245.51 770.254 247.58C768.77 249.65 766.68 251.193 763.985 252.209C761.289 253.225 758.047 253.732 754.258 253.732C749.864 253.732 745.84 252.99 742.188 251.506V239.992C743.946 241.281 745.889 242.326 748.018 243.127C750.147 243.908 752.129 244.299 753.965 244.299C755.352 244.299 756.426 244.055 757.188 243.566C757.95 243.059 758.33 242.326 758.33 241.369C758.33 240.686 758.135 240.09 757.745 239.582C757.373 239.055 756.797 238.566 756.016 238.117C755.254 237.668 753.828 237.053 751.739 236.271C744.981 233.674 741.602 229.475 741.602 223.674C741.602 219.611 743.145 216.369 746.231 213.947C749.317 211.506 753.457 210.285 758.653 210.285C760.118 210.285 761.465 210.344 762.696 210.461C763.926 210.578 765.039 210.725 766.036 210.9C767.051 211.076 768.467 211.408 770.284 211.896V222.59C766.748 220.656 763.272 219.689 759.854 219.689C758.448 219.689 757.315 219.953 756.455 220.48C755.596 221.008 755.166 221.73 755.166 222.648C755.166 223.527 755.508 224.26 756.192 224.846C756.895 225.412 758.35 226.154 760.557 227.072C764.912 228.83 767.989 230.754 769.786 232.844C771.602 234.934 772.51 237.414 772.51 240.285ZM794.523 220.891V228.449H807.003V238.352H794.523V253H781.866V210.988H808.204V220.891H794.523ZM844.865 253L843.02 245.266H830.48L828.488 253H814.807L829.279 210.988H844.982L858.605 253H844.865ZM836.896 220.129H836.604C836.564 220.598 836.428 221.369 836.193 222.443C835.959 223.518 834.777 228.127 832.648 236.271H840.676L837.746 224.846C837.336 223.166 837.053 221.594 836.896 220.129ZM898.987 251.857C896.409 252.834 893.03 253.439 888.85 253.674V254.934C892.659 255.207 894.563 256.945 894.563 260.148C894.563 262.316 893.675 263.977 891.897 265.129C890.139 266.281 887.63 266.857 884.368 266.857C883.333 266.857 882.21 266.799 880.999 266.682V261.643C881.721 261.799 882.522 261.877 883.401 261.877C884.514 261.877 885.354 261.711 885.921 261.379C886.487 261.066 886.77 260.656 886.77 260.148C886.77 259.543 886.536 259.094 886.067 258.801C885.618 258.527 884.846 258.391 883.753 258.391H883.225L882.61 258.449V253.41C879.016 252.922 875.93 251.77 873.352 249.953C870.774 248.137 868.802 245.783 867.434 242.893C866.067 239.982 865.384 236.672 865.384 232.961C865.384 228.527 866.341 224.582 868.255 221.125C870.169 217.668 872.874 215.002 876.37 213.127C879.866 211.232 883.889 210.285 888.44 210.285C892.073 210.285 895.589 210.725 898.987 211.604V223.293C897.815 222.59 896.419 222.043 894.798 221.652C893.177 221.262 891.536 221.066 889.876 221.066C886.438 221.066 883.723 222.053 881.731 224.025C879.759 225.998 878.772 228.674 878.772 232.053C878.772 235.412 879.759 238.068 881.731 240.021C883.723 241.955 886.38 242.922 889.7 242.922C892.766 242.922 895.862 242.141 898.987 240.578V251.857ZM936.058 253L934.213 245.266H921.673L919.681 253H906L920.472 210.988H936.175L949.798 253H936.058ZM928.089 220.129H927.797C927.757 220.598 927.621 221.369 927.386 222.443C927.152 223.518 925.97 228.127 923.841 236.271H931.869L928.939 224.846C928.529 223.166 928.246 221.594 928.089 220.129ZM939.545 196.721C939.545 199.943 938.959 202.414 937.787 204.133C936.615 205.832 934.925 206.682 932.718 206.682C931 206.682 929.339 206.203 927.738 205.246C927.074 204.855 926.459 204.484 925.892 204.133C925.345 203.781 924.759 203.605 924.134 203.605C923.392 203.605 922.806 203.908 922.377 204.514C921.947 205.119 921.732 205.979 921.732 207.092H916.634C916.634 203.771 917.23 201.281 918.422 199.621C919.632 197.961 921.273 197.131 923.343 197.131C925.336 197.131 927.181 197.697 928.88 198.83C929.447 199.182 929.984 199.504 930.492 199.797C931 200.07 931.556 200.207 932.162 200.207C932.826 200.207 933.363 199.924 933.773 199.357C934.183 198.771 934.388 197.893 934.388 196.721H939.545ZM998.881 231.877C998.881 236.096 997.973 239.875 996.157 243.215C994.34 246.535 991.801 249.123 988.539 250.979C985.278 252.814 981.625 253.732 977.582 253.732C973.637 253.732 970.043 252.844 966.801 251.066C963.578 249.27 961.069 246.76 959.272 243.537C957.475 240.295 956.577 236.633 956.577 232.551C956.577 228.273 957.485 224.426 959.301 221.008C961.118 217.59 963.666 214.953 966.948 213.098C970.229 211.223 973.959 210.285 978.139 210.285C982.162 210.285 985.756 211.184 988.92 212.98C992.104 214.758 994.555 217.307 996.274 220.627C998.012 223.928 998.881 227.678 998.881 231.877ZM985.463 232.229C985.463 228.771 984.799 226.047 983.471 224.055C982.143 222.062 980.327 221.066 978.022 221.066C975.502 221.066 973.539 222.023 972.133 223.938C970.727 225.852 970.024 228.557 970.024 232.053C970.024 235.471 970.717 238.137 972.104 240.051C973.51 241.965 975.414 242.922 977.817 242.922C979.282 242.922 980.6 242.492 981.772 241.633C982.944 240.773 983.852 239.543 984.496 237.941C985.141 236.34 985.463 234.436 985.463 232.229ZM1069.57 231.467C1069.57 235.725 1068.67 239.494 1066.87 242.775C1065.09 246.037 1062.54 248.557 1059.22 250.334C1055.9 252.111 1052.08 253 1047.74 253H1029.96V210.988H1047.36C1062.16 210.988 1069.57 217.814 1069.57 231.467ZM1056.12 231.584C1056.12 229.533 1055.7 227.688 1054.86 226.047C1054.04 224.406 1052.86 223.137 1051.31 222.238C1049.77 221.34 1047.96 220.891 1045.87 220.891H1042.61V243.098H1046.16C1049.19 243.098 1051.6 242.062 1053.39 239.992C1055.21 237.902 1056.12 235.1 1056.12 231.584ZM1079.68 253V210.988H1105.85V220.891H1092.34V227.014H1105.03V236.916H1092.34V243.098H1106.81V253H1079.68ZM382.474 343.857C378.997 345.107 374.984 345.732 370.433 345.732C365.96 345.732 362.103 344.883 358.861 343.184C355.618 341.465 353.138 339.033 351.419 335.889C349.72 332.725 348.87 329.082 348.87 324.961C348.87 320.527 349.827 316.582 351.741 313.125C353.655 309.668 356.361 307.002 359.857 305.127C363.353 303.232 367.376 302.285 371.927 302.285C375.56 302.285 379.075 302.725 382.474 303.604V315.293C381.302 314.59 379.905 314.043 378.284 313.652C376.663 313.262 375.023 313.066 373.362 313.066C369.925 313.066 367.21 314.053 365.218 316.025C363.245 317.998 362.259 320.674 362.259 324.053C362.259 327.412 363.245 330.068 365.218 332.021C367.21 333.955 369.866 334.922 373.187 334.922C376.253 334.922 379.349 334.141 382.474 332.578V343.857ZM433.168 323.877C433.168 328.096 432.26 331.875 430.443 335.215C428.627 338.535 426.088 341.123 422.826 342.979C419.564 344.814 415.912 345.732 411.869 345.732C407.924 345.732 404.33 344.844 401.088 343.066C397.865 341.27 395.355 338.76 393.559 335.537C391.762 332.295 390.863 328.633 390.863 324.551C390.863 320.273 391.771 316.426 393.588 313.008C395.404 309.59 397.953 306.953 401.234 305.098C404.516 303.223 408.246 302.285 412.426 302.285C416.449 302.285 420.043 303.184 423.207 304.98C426.391 306.758 428.842 309.307 430.561 312.627C432.299 315.928 433.168 319.678 433.168 323.877ZM419.75 324.229C419.75 320.771 419.086 318.047 417.758 316.055C416.43 314.062 414.613 313.066 412.309 313.066C409.789 313.066 407.826 314.023 406.42 315.938C405.014 317.852 404.311 320.557 404.311 324.053C404.311 327.471 405.004 330.137 406.391 332.051C407.797 333.965 409.701 334.922 412.104 334.922C413.568 334.922 414.887 334.492 416.059 333.633C417.23 332.773 418.139 331.543 418.783 329.941C419.428 328.34 419.75 326.436 419.75 324.229ZM443.345 345V302.988H456.001V335.098H470.473V345H443.345ZM506.343 345L504.498 337.266H491.959L489.966 345H476.285L490.757 302.988H506.461L520.084 345H506.343ZM498.375 312.129H498.082C498.043 312.598 497.906 313.369 497.671 314.443C497.437 315.518 496.255 320.127 494.127 328.271H502.154L499.224 316.846C498.814 315.166 498.531 313.594 498.375 312.129ZM565.094 332.109C565.094 336.23 563.649 339.414 560.758 341.66C557.868 343.887 553.737 345 548.366 345H529.205V302.988H547.047C558.2 302.988 563.776 306.377 563.776 313.154C563.776 314.619 563.424 315.967 562.721 317.197C562.018 318.408 560.944 319.473 559.498 320.391C558.073 321.309 556.5 321.934 554.782 322.266V322.383C556.774 322.617 558.561 323.213 560.143 324.17C561.725 325.107 562.946 326.289 563.805 327.715C564.664 329.121 565.094 330.586 565.094 332.109ZM550.328 315.352C550.328 312.754 548.287 311.455 544.205 311.455H541.862V319.395H545.524C546.93 319.395 548.082 319.023 548.981 318.281C549.879 317.52 550.328 316.543 550.328 315.352ZM551.647 332.051C551.647 330.84 551.207 329.844 550.328 329.062C549.45 328.281 548.287 327.891 546.842 327.891H541.862V336.475H546.08C547.799 336.475 549.157 336.084 550.153 335.303C551.149 334.502 551.647 333.418 551.647 332.051ZM614.851 323.877C614.851 328.096 613.943 331.875 612.126 335.215C610.31 338.535 607.771 341.123 604.509 342.979C601.247 344.814 597.595 345.732 593.552 345.732C589.607 345.732 586.013 344.844 582.771 343.066C579.548 341.27 577.038 338.76 575.241 335.537C573.445 332.295 572.546 328.633 572.546 324.551C572.546 320.273 573.454 316.426 575.271 313.008C577.087 309.59 579.636 306.953 582.917 305.098C586.198 303.223 589.929 302.285 594.109 302.285C598.132 302.285 601.726 303.184 604.89 304.98C608.073 306.758 610.525 309.307 612.243 312.627C613.982 315.928 614.851 319.678 614.851 323.877ZM601.433 324.229C601.433 320.771 600.769 318.047 599.441 316.055C598.112 314.062 596.296 313.066 593.991 313.066C591.472 313.066 589.509 314.023 588.103 315.938C586.696 317.852 585.993 320.557 585.993 324.053C585.993 327.471 586.687 330.137 588.073 332.051C589.48 333.965 591.384 334.922 593.786 334.922C595.251 334.922 596.57 334.492 597.741 333.633C598.913 332.773 599.821 331.543 600.466 329.941C601.111 328.34 601.433 326.436 601.433 324.229ZM646.824 345L643.689 335.947C643.084 334.17 642.293 332.773 641.316 331.758C640.359 330.742 639.314 330.234 638.182 330.234H637.684V345H625.027V302.988H641.844C647.723 302.988 652.059 303.955 654.852 305.889C657.664 307.803 659.07 310.684 659.07 314.531C659.07 317.422 658.25 319.844 656.609 321.797C654.988 323.75 652.566 325.166 649.344 326.045V326.162C651.121 326.709 652.596 327.598 653.768 328.828C654.959 330.059 656.023 331.885 656.961 334.307L661.092 345H646.824ZM645.623 316.318C645.623 314.912 645.193 313.799 644.334 312.979C643.475 312.158 642.127 311.748 640.291 311.748H637.684V321.357H639.969C641.668 321.357 643.035 320.879 644.07 319.922C645.105 318.965 645.623 317.764 645.623 316.318ZM696.522 345L694.677 337.266H682.137L680.145 345H666.464L680.936 302.988H696.639L710.262 345H696.522ZM688.553 312.129H688.26C688.221 312.598 688.085 313.369 687.85 314.443C687.616 315.518 686.434 320.127 684.305 328.271H692.333L689.403 316.846C688.993 315.166 688.71 313.594 688.553 312.129ZM758.994 323.467C758.994 327.725 758.095 331.494 756.298 334.775C754.521 338.037 751.972 340.557 748.652 342.334C745.332 344.111 741.504 345 737.168 345H719.384V302.988H736.787C751.591 302.988 758.994 309.814 758.994 323.467ZM745.547 323.584C745.547 321.533 745.127 319.688 744.287 318.047C743.466 316.406 742.285 315.137 740.742 314.238C739.199 313.34 737.382 312.891 735.293 312.891H732.041V335.098H735.586C738.613 335.098 741.025 334.062 742.822 331.992C744.638 329.902 745.547 327.1 745.547 323.584ZM809.073 323.877C809.073 328.096 808.164 331.875 806.348 335.215C804.532 338.535 801.993 341.123 798.731 342.979C795.469 344.814 791.817 345.732 787.774 345.732C783.828 345.732 780.235 344.844 776.993 343.066C773.77 341.27 771.26 338.76 769.463 335.537C767.666 332.295 766.768 328.633 766.768 324.551C766.768 320.273 767.676 316.426 769.493 313.008C771.309 309.59 773.858 306.953 777.139 305.098C780.42 303.223 784.151 302.285 788.33 302.285C792.354 302.285 795.948 303.184 799.112 304.98C802.295 306.758 804.746 309.307 806.465 312.627C808.203 315.928 809.073 319.678 809.073 323.877ZM795.655 324.229C795.655 320.771 794.991 318.047 793.662 316.055C792.334 314.062 790.518 313.066 788.213 313.066C785.694 313.066 783.731 314.023 782.325 315.938C780.918 317.852 780.215 320.557 780.215 324.053C780.215 327.471 780.909 330.137 782.295 332.051C783.702 333.965 785.606 334.922 788.008 334.922C789.473 334.922 790.791 334.492 791.963 333.633C793.135 332.773 794.043 331.543 794.688 329.941C795.332 328.34 795.655 326.436 795.655 324.229ZM841.046 345L837.911 335.947C837.306 334.17 836.515 332.773 835.538 331.758C834.581 330.742 833.536 330.234 832.404 330.234H831.905V345H819.249V302.988H836.066C841.945 302.988 846.28 303.955 849.073 305.889C851.886 307.803 853.292 310.684 853.292 314.531C853.292 317.422 852.472 319.844 850.831 321.797C849.21 323.75 846.788 325.166 843.566 326.045V326.162C845.343 326.709 846.818 327.598 847.989 328.828C849.181 330.059 850.245 331.885 851.183 334.307L855.314 345H841.046ZM839.845 316.318C839.845 314.912 839.415 313.799 838.556 312.979C837.696 312.158 836.349 311.748 834.513 311.748H831.905V321.357H834.191C835.89 321.357 837.257 320.879 838.292 319.922C839.327 318.965 839.845 317.764 839.845 316.318ZM864.406 345V302.988H890.568V312.891H877.062V319.014H889.748V328.916H877.062V335.098H891.535V345H864.406ZM930.891 332.285C930.891 335.078 930.139 337.51 928.636 339.58C927.151 341.65 925.061 343.193 922.366 344.209C919.671 345.225 916.429 345.732 912.639 345.732C908.245 345.732 904.221 344.99 900.569 343.506V331.992C902.327 333.281 904.27 334.326 906.399 335.127C908.528 335.908 910.511 336.299 912.346 336.299C913.733 336.299 914.807 336.055 915.569 335.566C916.331 335.059 916.712 334.326 916.712 333.369C916.712 332.686 916.516 332.09 916.126 331.582C915.755 331.055 915.179 330.566 914.397 330.117C913.636 329.668 912.21 329.053 910.12 328.271C903.362 325.674 899.983 321.475 899.983 315.674C899.983 311.611 901.526 308.369 904.612 305.947C907.698 303.506 911.839 302.285 917.034 302.285C918.499 302.285 919.846 302.344 921.077 302.461C922.307 302.578 923.421 302.725 924.417 302.9C925.432 303.076 926.848 303.408 928.665 303.896V314.59C925.13 312.656 921.653 311.689 918.235 311.689C916.829 311.689 915.696 311.953 914.837 312.48C913.977 313.008 913.548 313.73 913.548 314.648C913.548 315.527 913.889 316.26 914.573 316.846C915.276 317.412 916.731 318.154 918.938 319.072C923.294 320.83 926.37 322.754 928.167 324.844C929.983 326.934 930.891 329.414 930.891 332.285Z" fill="#0D0C6B"/>
<path d="M145.225 485.028C145.225 486.802 144.851 488.373 144.102 489.74C143.361 491.099 142.299 492.149 140.916 492.889C139.533 493.63 137.938 494 136.131 494H128.721V476.495H135.972C142.141 476.495 145.225 479.339 145.225 485.028ZM139.622 485.077C139.622 484.222 139.447 483.453 139.097 482.77C138.755 482.086 138.263 481.557 137.62 481.183C136.977 480.808 136.22 480.621 135.35 480.621H133.995V489.874H135.472C136.733 489.874 137.738 489.443 138.487 488.58C139.244 487.709 139.622 486.542 139.622 485.077ZM152.695 489.227C152.784 489.764 153.094 490.187 153.623 490.497C154.152 490.798 154.851 490.948 155.722 490.948C156.935 490.948 158.082 490.716 159.165 490.252V493.548C157.903 494.053 156.373 494.305 154.575 494.305C152.394 494.305 150.697 493.748 149.484 492.633C148.272 491.518 147.666 489.984 147.666 488.031C147.666 486.688 147.93 485.504 148.459 484.479C148.996 483.453 149.785 482.652 150.827 482.074C151.877 481.488 153.033 481.195 154.294 481.195C155.588 481.195 156.695 481.447 157.614 481.952C158.534 482.456 159.23 483.164 159.702 484.076C160.182 484.987 160.422 486.053 160.422 487.274V489.227H152.695ZM155.82 486.505C155.82 485.064 155.303 484.344 154.27 484.344C153.838 484.344 153.476 484.544 153.183 484.942C152.89 485.333 152.719 485.854 152.67 486.505H155.82ZM173.385 489.85C173.385 491.266 172.844 492.364 171.761 493.146C170.687 493.919 169.186 494.305 167.257 494.305C166.695 494.305 166 494.248 165.169 494.134C164.347 494.02 163.676 493.882 163.155 493.719V490.069C164.693 490.753 165.979 491.095 167.013 491.095C168.03 491.095 168.539 490.83 168.539 490.301C168.539 490.082 168.421 489.903 168.185 489.764C167.949 489.618 167.33 489.378 166.329 489.044C165.222 488.694 164.417 488.23 163.912 487.652C163.408 487.075 163.155 486.322 163.155 485.394C163.155 484.1 163.668 483.079 164.693 482.33C165.727 481.573 167.175 481.195 169.039 481.195C170.13 481.195 171.285 481.354 172.506 481.671V485.174C171.993 484.955 171.432 484.771 170.821 484.625C170.211 484.479 169.698 484.405 169.283 484.405C168.941 484.405 168.669 484.462 168.465 484.576C168.262 484.69 168.16 484.849 168.16 485.052C168.16 485.288 168.27 485.479 168.49 485.626C168.709 485.772 169.149 485.947 169.808 486.151C171.086 486.525 172.001 487.005 172.555 487.591C173.108 488.177 173.385 488.93 173.385 489.85ZM180.793 489.227C180.883 489.764 181.192 490.187 181.721 490.497C182.25 490.798 182.95 490.948 183.821 490.948C185.033 490.948 186.181 490.716 187.263 490.252V493.548C186.002 494.053 184.472 494.305 182.673 494.305C180.492 494.305 178.796 493.748 177.583 492.633C176.37 491.518 175.764 489.984 175.764 488.031C175.764 486.688 176.029 485.504 176.558 484.479C177.095 483.453 177.884 482.652 178.926 482.074C179.976 481.488 181.131 481.195 182.393 481.195C183.687 481.195 184.793 481.447 185.713 481.952C186.632 482.456 187.328 483.164 187.8 484.076C188.28 484.987 188.521 486.053 188.521 487.274V489.227H180.793ZM183.918 486.505C183.918 485.064 183.402 484.344 182.368 484.344C181.937 484.344 181.575 484.544 181.282 484.942C180.989 485.333 180.818 485.854 180.769 486.505H183.918ZM199.433 494V487.176C199.433 486.403 199.315 485.85 199.079 485.516C198.851 485.174 198.476 485.003 197.956 485.003C197.508 485.003 197.158 485.178 196.906 485.528C196.653 485.878 196.527 486.326 196.527 486.871V494H191.327V481.5H196.527V483.453H196.576C196.991 482.737 197.549 482.184 198.249 481.793C198.948 481.394 199.709 481.195 200.531 481.195C203.266 481.195 204.633 482.92 204.633 486.371V494H199.433ZM217.083 494H210.906L206.731 481.5H212.151L213.677 488.324C213.921 489.422 214.056 490.248 214.08 490.802H214.153C214.17 490.639 214.19 490.472 214.214 490.301C214.247 490.13 214.853 487.197 216.033 481.5H221.429L217.083 494ZM237.578 487.53C237.578 489.638 236.939 491.294 235.661 492.499C234.392 493.703 232.613 494.305 230.327 494.305C228.056 494.305 226.286 493.719 225.017 492.547C223.755 491.367 223.125 489.744 223.125 487.677C223.125 486.35 223.422 485.199 224.016 484.222C224.61 483.246 225.456 482.497 226.555 481.976C227.653 481.455 228.919 481.195 230.351 481.195C231.832 481.195 233.114 481.467 234.196 482.013C235.287 482.558 236.121 483.315 236.699 484.283C237.285 485.252 237.578 486.334 237.578 487.53ZM232.304 487.555C232.304 485.854 231.653 485.003 230.351 485.003C229.049 485.003 228.398 485.895 228.398 487.677C228.398 489.557 229.057 490.497 230.375 490.497C231.661 490.497 232.304 489.516 232.304 487.555ZM240.519 494V475.494H245.719V494H240.519ZM258.34 494H252.163L247.988 481.5H253.408L254.934 488.324C255.178 489.422 255.312 490.248 255.337 490.802H255.41C255.426 490.639 255.447 490.472 255.471 490.301C255.504 490.13 256.11 487.197 257.29 481.5H262.686L258.34 494ZM270.436 478.131C270.436 478.863 270.167 479.457 269.63 479.913C269.101 480.369 268.402 480.597 267.531 480.597C266.684 480.597 265.989 480.361 265.443 479.889C264.906 479.417 264.638 478.831 264.638 478.131C264.638 477.415 264.898 476.837 265.419 476.397C265.948 475.95 266.652 475.726 267.531 475.726C268.402 475.726 269.101 475.95 269.63 476.397C270.167 476.837 270.436 477.415 270.436 478.131ZM264.931 494V481.5H270.131V494H264.931ZM281.995 494V492.547H281.946C281.531 493.093 280.99 493.524 280.323 493.841C279.655 494.151 278.996 494.305 278.345 494.305C277.279 494.305 276.339 494.045 275.525 493.524C274.712 492.995 274.101 492.258 273.694 491.314C273.296 490.37 273.096 489.256 273.096 487.97C273.096 486.643 273.336 485.467 273.816 484.442C274.297 483.417 274.972 482.619 275.843 482.049C276.714 481.48 277.69 481.195 278.772 481.195C279.285 481.195 279.757 481.268 280.188 481.415C280.628 481.561 281.006 481.76 281.324 482.013C281.649 482.257 281.857 482.501 281.946 482.745H281.995V475.494H287.195V494H281.995ZM282.105 487.372C282.105 486.623 281.938 486.041 281.604 485.626C281.279 485.211 280.835 485.003 280.274 485.003C279.712 485.003 279.253 485.264 278.895 485.785C278.545 486.297 278.37 486.985 278.37 487.848C278.37 489.614 278.98 490.497 280.201 490.497C280.778 490.497 281.238 490.261 281.58 489.789C281.93 489.308 282.105 488.613 282.105 487.701V487.372ZM304.614 487.53C304.614 489.638 303.975 491.294 302.697 492.499C301.428 493.703 299.65 494.305 297.363 494.305C295.092 494.305 293.322 493.719 292.053 492.547C290.791 491.367 290.161 489.744 290.161 487.677C290.161 486.35 290.458 485.199 291.052 484.222C291.646 483.246 292.492 482.497 293.591 481.976C294.689 481.455 295.955 481.195 297.387 481.195C298.868 481.195 300.15 481.467 301.232 482.013C302.323 482.558 303.157 483.315 303.735 484.283C304.321 485.252 304.614 486.334 304.614 487.53ZM299.34 487.555C299.34 485.854 298.689 485.003 297.387 485.003C296.085 485.003 295.434 485.895 295.434 487.677C295.434 489.557 296.093 490.497 297.412 490.497C298.697 490.497 299.34 489.516 299.34 487.555ZM329.612 487.372C329.612 488.739 329.38 489.947 328.916 490.997C328.452 492.047 327.797 492.861 326.951 493.438C326.104 494.016 325.152 494.305 324.094 494.305C322.629 494.305 321.519 493.772 320.762 492.706H320.713V499.75H315.513V481.5H320.713V483.197H320.762C321.177 482.57 321.714 482.082 322.373 481.732C323.032 481.374 323.781 481.195 324.619 481.195C326.23 481.195 327.463 481.732 328.318 482.806C329.181 483.88 329.612 485.402 329.612 487.372ZM324.338 487.53C324.338 486.741 324.184 486.122 323.875 485.675C323.573 485.227 323.105 485.003 322.471 485.003C321.917 485.003 321.47 485.239 321.128 485.711C320.786 486.183 320.615 486.83 320.615 487.652V487.896C320.615 488.686 320.762 489.317 321.055 489.789C321.348 490.261 321.787 490.497 322.373 490.497C323 490.497 323.484 490.24 323.826 489.728C324.167 489.207 324.338 488.474 324.338 487.53ZM346.481 487.53C346.481 489.638 345.842 491.294 344.564 492.499C343.295 493.703 341.517 494.305 339.23 494.305C336.959 494.305 335.189 493.719 333.92 492.547C332.659 491.367 332.028 489.744 332.028 487.677C332.028 486.35 332.325 485.199 332.919 484.222C333.513 483.246 334.359 482.497 335.458 481.976C336.557 481.455 337.822 481.195 339.254 481.195C340.736 481.195 342.017 481.467 343.1 482.013C344.19 482.558 345.024 483.315 345.602 484.283C346.188 485.252 346.481 486.334 346.481 487.53ZM341.208 487.555C341.208 485.854 340.556 485.003 339.254 485.003C337.952 485.003 337.301 485.895 337.301 487.677C337.301 489.557 337.96 490.497 339.279 490.497C340.565 490.497 341.208 489.516 341.208 487.555ZM358.821 485.956C358.626 485.866 358.361 485.785 358.028 485.711C357.694 485.638 357.417 485.602 357.198 485.602C355.481 485.602 354.622 486.594 354.622 488.58V494H349.422V481.5H354.622V483.697H354.671C354.988 482.908 355.44 482.31 356.026 481.903C356.612 481.488 357.295 481.28 358.077 481.28C358.361 481.28 358.61 481.329 358.821 481.427V485.956ZM366.987 483.905C366.987 484.645 366.722 485.243 366.193 485.699C365.673 486.147 364.956 486.371 364.045 486.371C363.215 486.371 362.531 486.135 361.994 485.663C361.457 485.191 361.188 484.605 361.188 483.905C361.188 483.189 361.449 482.611 361.97 482.171C362.499 481.724 363.207 481.5 364.094 481.5C364.956 481.5 365.652 481.724 366.181 482.171C366.718 482.611 366.987 483.189 366.987 483.905ZM366.987 491.827C366.987 492.568 366.726 493.166 366.206 493.622C365.685 494.077 364.965 494.305 364.045 494.305C363.207 494.305 362.519 494.069 361.982 493.597C361.453 493.117 361.188 492.527 361.188 491.827C361.188 491.111 361.449 490.533 361.97 490.094C362.499 489.646 363.207 489.422 364.094 489.422C364.956 489.422 365.652 489.646 366.181 490.094C366.718 490.533 366.987 491.111 366.987 491.827ZM390.935 488.702C390.935 489.866 390.622 490.879 389.995 491.742C389.377 492.604 388.506 493.247 387.383 493.67C386.26 494.094 384.909 494.305 383.33 494.305C381.499 494.305 379.823 493.996 378.301 493.377V488.58C379.033 489.117 379.843 489.553 380.73 489.886C381.617 490.212 382.443 490.375 383.208 490.375C383.786 490.375 384.233 490.273 384.551 490.069C384.868 489.858 385.027 489.553 385.027 489.154C385.027 488.869 384.945 488.621 384.783 488.409C384.628 488.189 384.388 487.986 384.062 487.799C383.745 487.612 383.151 487.355 382.28 487.03C379.465 485.947 378.057 484.198 378.057 481.781C378.057 480.088 378.7 478.737 379.985 477.728C381.271 476.711 382.996 476.202 385.161 476.202C385.771 476.202 386.333 476.227 386.846 476.275C387.358 476.324 387.822 476.385 388.237 476.458C388.66 476.532 389.25 476.67 390.007 476.874V481.329C388.534 480.523 387.086 480.121 385.662 480.121C385.076 480.121 384.604 480.23 384.246 480.45C383.888 480.67 383.708 480.971 383.708 481.354C383.708 481.72 383.851 482.025 384.136 482.269C384.429 482.505 385.035 482.814 385.955 483.197C387.769 483.929 389.051 484.731 389.8 485.602C390.557 486.472 390.935 487.506 390.935 488.702ZM400.541 494V492.096H400.492C399.662 493.569 398.393 494.305 396.684 494.305C395.504 494.305 394.58 493.955 393.913 493.255C393.245 492.556 392.912 491.62 392.912 490.448C392.912 487.99 394.421 486.566 397.44 486.175L400.541 485.772C400.541 485.366 400.358 485.032 399.992 484.771C399.625 484.511 399.133 484.381 398.515 484.381C397.115 484.381 395.638 484.78 394.083 485.577V482.196C394.759 481.903 395.605 481.663 396.623 481.476C397.64 481.288 398.511 481.195 399.235 481.195C401.359 481.195 402.897 481.651 403.849 482.562C404.809 483.465 405.29 484.979 405.29 487.103V494H400.541ZM397.465 489.752C397.465 490.094 397.571 490.375 397.782 490.594C398.002 490.814 398.311 490.924 398.71 490.924C399.255 490.924 399.695 490.72 400.028 490.313C400.37 489.907 400.541 489.386 400.541 488.751V488.275L398.783 488.519C397.904 488.666 397.465 489.076 397.465 489.752ZM414.151 478.131C414.151 478.863 413.882 479.457 413.345 479.913C412.816 480.369 412.116 480.597 411.246 480.597C410.399 480.597 409.703 480.361 409.158 479.889C408.621 479.417 408.353 478.831 408.353 478.131C408.353 477.415 408.613 476.837 409.134 476.397C409.663 475.95 410.367 475.726 411.246 475.726C412.116 475.726 412.816 475.95 413.345 476.397C413.882 476.837 414.151 477.415 414.151 478.131ZM408.646 494V481.5H413.846V494H408.646ZM431.264 487.53C431.264 489.638 430.625 491.294 429.348 492.499C428.078 493.703 426.3 494.305 424.013 494.305C421.743 494.305 419.973 493.719 418.703 492.547C417.442 491.367 416.811 489.744 416.811 487.677C416.811 486.35 417.108 485.199 417.702 484.222C418.296 483.246 419.143 482.497 420.241 481.976C421.34 481.455 422.605 481.195 424.038 481.195C425.519 481.195 426.8 481.467 427.883 482.013C428.973 482.558 429.807 483.315 430.385 484.283C430.971 485.252 431.264 486.334 431.264 487.53ZM425.991 487.555C425.991 485.854 425.34 485.003 424.038 485.003C422.736 485.003 422.084 485.895 422.084 487.677C422.084 489.557 422.744 490.497 424.062 490.497C425.348 490.497 425.991 489.516 425.991 487.555ZM442.311 494V487.176C442.311 486.403 442.193 485.85 441.957 485.516C441.729 485.174 441.354 485.003 440.833 485.003C440.386 485.003 440.036 485.178 439.784 485.528C439.531 485.878 439.405 486.326 439.405 486.871V494H434.205V481.5H439.405V483.453H439.454C439.869 482.737 440.427 482.184 441.126 481.793C441.826 481.394 442.587 481.195 443.409 481.195C446.144 481.195 447.511 482.92 447.511 486.371V494H442.311ZM457.788 494V492.096H457.739C456.909 493.569 455.64 494.305 453.931 494.305C452.751 494.305 451.827 493.955 451.16 493.255C450.492 492.556 450.159 491.62 450.159 490.448C450.159 487.99 451.668 486.566 454.688 486.175L457.788 485.772C457.788 485.366 457.605 485.032 457.239 484.771C456.873 484.511 456.38 484.381 455.762 484.381C454.362 484.381 452.885 484.78 451.331 485.577V482.196C452.006 481.903 452.852 481.663 453.87 481.476C454.887 481.288 455.758 481.195 456.482 481.195C458.606 481.195 460.144 481.651 461.096 482.562C462.056 483.465 462.537 484.979 462.537 487.103V494H457.788ZM454.712 489.752C454.712 490.094 454.818 490.375 455.029 490.594C455.249 490.814 455.558 490.924 455.957 490.924C456.502 490.924 456.942 490.72 457.275 490.313C457.617 489.907 457.788 489.386 457.788 488.751V488.275L456.03 488.519C455.151 488.666 454.712 489.076 454.712 489.752ZM475.292 485.956C475.097 485.866 474.832 485.785 474.499 485.711C474.165 485.638 473.888 485.602 473.668 485.602C471.951 485.602 471.093 486.594 471.093 488.58V494H465.893V481.5H471.093V483.697H471.142C471.459 482.908 471.911 482.31 472.497 481.903C473.083 481.488 473.766 481.28 474.547 481.28C474.832 481.28 475.08 481.329 475.292 481.427V485.956ZM484.739 494V492.096H484.69C483.86 493.569 482.591 494.305 480.882 494.305C479.702 494.305 478.778 493.955 478.111 493.255C477.444 492.556 477.11 491.62 477.11 490.448C477.11 487.99 478.619 486.566 481.639 486.175L484.739 485.772C484.739 485.366 484.556 485.032 484.19 484.771C483.824 484.511 483.331 484.381 482.713 484.381C481.313 484.381 479.836 484.78 478.282 485.577V482.196C478.957 481.903 479.804 481.663 480.821 481.476C481.838 481.288 482.709 481.195 483.433 481.195C485.557 481.195 487.095 481.651 488.047 482.562C489.008 483.465 489.488 484.979 489.488 487.103V494H484.739ZM481.663 489.752C481.663 490.094 481.769 490.375 481.98 490.594C482.2 490.814 482.509 490.924 482.908 490.924C483.453 490.924 483.893 490.72 484.227 490.313C484.568 489.907 484.739 489.386 484.739 488.751V488.275L482.981 488.519C482.103 488.666 481.663 489.076 481.663 489.752ZM512.252 494L511.483 490.777H506.258L505.428 494H499.728L505.758 476.495H512.301L517.977 494H512.252ZM508.932 480.304H508.81C508.793 480.499 508.736 480.82 508.639 481.268C508.541 481.716 508.049 483.636 507.162 487.03H510.506L509.286 482.269C509.115 481.569 508.997 480.914 508.932 480.304ZM529.951 485.956C529.756 485.866 529.491 485.785 529.158 485.711C528.824 485.638 528.547 485.602 528.328 485.602C526.611 485.602 525.752 486.594 525.752 488.58V494H520.552V481.5H525.752V483.697H525.801C526.118 482.908 526.57 482.31 527.156 481.903C527.742 481.488 528.425 481.28 529.207 481.28C529.491 481.28 529.74 481.329 529.951 481.427V485.956ZM539.398 494V492.096H539.35C538.52 493.569 537.25 494.305 535.541 494.305C534.361 494.305 533.437 493.955 532.77 493.255C532.103 492.556 531.769 491.62 531.769 490.448C531.769 487.99 533.279 486.566 536.298 486.175L539.398 485.772C539.398 485.366 539.215 485.032 538.849 484.771C538.483 484.511 537.991 484.381 537.372 484.381C535.972 484.381 534.495 484.78 532.941 485.577V482.196C533.616 481.903 534.463 481.663 535.48 481.476C536.497 481.288 537.368 481.195 538.092 481.195C540.216 481.195 541.754 481.651 542.707 482.562C543.667 483.465 544.147 484.979 544.147 487.103V494H539.398ZM536.322 489.752C536.322 490.094 536.428 490.375 536.64 490.594C536.859 490.814 537.169 490.924 537.567 490.924C538.113 490.924 538.552 490.72 538.886 490.313C539.228 489.907 539.398 489.386 539.398 488.751V488.275L537.641 488.519C536.762 488.666 536.322 489.076 536.322 489.752ZM555.462 494V492.071H555.413C554.982 492.665 554.591 493.101 554.241 493.377C553.899 493.654 553.509 493.878 553.069 494.049C552.638 494.22 552.133 494.305 551.556 494.305C550.188 494.305 549.147 493.862 548.431 492.975C547.715 492.088 547.356 490.777 547.356 489.044V481.5H552.557V488.653C552.557 489.882 553.016 490.497 553.936 490.497C554.441 490.497 554.819 490.33 555.071 489.996C555.332 489.662 555.462 489.19 555.462 488.58V481.5H560.662V494H555.462ZM554.632 479.522H550.958L554.607 475.604H558.978L554.632 479.522ZM569.658 478.131C569.658 478.863 569.389 479.457 568.852 479.913C568.323 480.369 567.623 480.597 566.752 480.597C565.906 480.597 565.21 480.361 564.665 479.889C564.128 479.417 563.859 478.831 563.859 478.131C563.859 477.415 564.12 476.837 564.641 476.397C565.17 475.95 565.874 475.726 566.752 475.726C567.623 475.726 568.323 475.95 568.852 476.397C569.389 476.837 569.658 477.415 569.658 478.131ZM569.353 494.122C569.353 495.221 569.137 496.222 568.706 497.125C568.274 498.036 567.639 498.72 566.801 499.176C565.963 499.64 564.966 499.872 563.811 499.872C563.176 499.872 562.484 499.75 561.735 499.505V495.697C562.191 495.949 562.606 496.075 562.98 496.075C563.412 496.075 563.713 495.929 563.884 495.636C564.063 495.351 564.152 494.916 564.152 494.33V481.5H569.353V494.122ZM586.771 487.53C586.771 489.638 586.132 491.294 584.854 492.499C583.585 493.703 581.807 494.305 579.52 494.305C577.25 494.305 575.479 493.719 574.21 492.547C572.949 491.367 572.318 489.744 572.318 487.677C572.318 486.35 572.615 485.199 573.209 484.222C573.803 483.246 574.649 482.497 575.748 481.976C576.847 481.455 578.112 481.195 579.544 481.195C581.026 481.195 582.307 481.467 583.39 482.013C584.48 482.558 585.314 483.315 585.892 484.283C586.478 485.252 586.771 486.334 586.771 487.53ZM581.498 487.555C581.498 485.854 580.847 485.003 579.544 485.003C578.242 485.003 577.591 485.895 577.591 487.677C577.591 489.557 578.25 490.497 579.569 490.497C580.855 490.497 581.498 489.516 581.498 487.555Z" fill="#0D0C6B"/>
<path d="M1249.83 715.625H1242.58V695.179H1249.83V715.625ZM1246.2 692.39C1243.88 692.39 1242 690.708 1242 688.678C1242 687.703 1242.44 686.767 1243.23 686.078C1244.02 685.388 1245.09 685.001 1246.2 685.001C1247.32 685.001 1248.39 685.388 1249.17 686.078C1249.96 686.767 1250.4 687.703 1250.4 688.678C1250.4 690.708 1248.52 692.39 1246.2 692.39ZM1276.99 715.625H1269.75V705.672C1269.75 703.3 1269.7 700.258 1265.98 700.258C1262.21 700.258 1261.63 702.835 1261.63 705.501V715.625H1254.38V695.179H1261.34V697.968H1261.44C1262.41 696.361 1264.78 694.666 1268.31 694.666C1275.65 694.666 1277 698.897 1277 704.394V715.625H1276.99Z" fill="#0D0C6B"/>
<path d="M164.945 560.453L132.766 528.297C132.534 528.065 132.259 527.881 131.956 527.755C131.653 527.629 131.328 527.565 131 527.565C130.672 527.565 130.347 527.629 130.044 527.755C129.741 527.881 129.466 528.065 129.234 528.297L97.0547 560.453C96.1172 561.391 95.5859 562.664 95.5859 563.992C95.5859 566.75 97.8281 568.992 100.586 568.992H103.977V591.938C103.977 593.32 105.094 594.438 106.477 594.438H126V576.937H134.75V594.438H155.523C156.906 594.438 158.023 593.32 158.023 591.938V568.992H161.414C162.742 568.992 164.016 568.469 164.953 567.523C166.898 565.57 166.898 562.406 164.945 560.453Z" fill="#0D0C6B"/>
<path d="M265.18 554.333C268.4 554.333 271.013 556.947 271.013 560.167V571H271V574.333H241V564.333H241.007V560.167C241.007 556.947 243.617 554.333 246.84 554.333H265.18ZM289.333 560.167C289.333 558.62 288.719 557.136 287.625 556.042C286.531 554.948 285.047 554.333 283.5 554.333H272.25C273.56 555.917 274.347 557.95 274.347 560.167V564.333H274.333V574.333H286.833C287.496 574.333 288.132 574.07 288.601 573.601C289.07 573.132 289.333 572.496 289.333 571.833V560.167ZM237.667 571H237.673V560.167L237.703 559.433C237.847 557.56 238.569 555.778 239.77 554.333H228.5L228.02 554.353C226.561 554.474 225.201 555.138 224.209 556.215C223.217 557.292 222.667 558.703 222.667 560.167V571.833C222.667 573.213 223.787 574.333 225.167 574.333H237.667V571ZM256 531C258.652 531 261.196 532.054 263.071 533.929C264.946 535.804 266 538.348 266 541C266 543.652 264.946 546.196 263.071 548.071C261.196 549.946 258.652 551 256 551C253.348 551 250.804 549.946 248.929 548.071C247.054 546.196 246 543.652 246 541C246 538.348 247.054 535.804 248.929 533.929C250.804 532.054 253.348 531 256 531ZM277.667 534.333C279.877 534.333 281.996 535.211 283.559 536.774C285.122 538.337 286 540.457 286 542.667C286 544.877 285.122 546.996 283.559 548.559C281.996 550.122 279.877 551 277.667 551C275.456 551 273.337 550.122 271.774 548.559C270.211 546.996 269.333 544.877 269.333 542.667C269.333 540.457 270.211 538.337 271.774 536.774C273.337 535.211 275.456 534.333 277.667 534.333ZM234.333 534.333C236.543 534.333 238.663 535.211 240.226 536.774C241.789 538.337 242.667 540.457 242.667 542.667C242.667 544.877 241.789 546.996 240.226 548.559C238.663 550.122 236.543 551 234.333 551C232.123 551 230.004 550.122 228.441 548.559C226.878 546.996 226 544.877 226 542.667C226 540.457 226.878 538.337 228.441 536.774C230.004 535.211 232.123 534.333 234.333 534.333ZM222.667 580.167C222.667 579.504 222.93 578.868 223.399 578.399C223.868 577.93 224.504 577.667 225.167 577.667H286.833C287.496 577.667 288.132 577.93 288.601 578.399C289.07 578.868 289.333 579.504 289.333 580.167V581.833C289.333 585.149 288.016 588.328 285.672 590.672C283.328 593.016 280.149 594.333 276.833 594.333H235.167C231.851 594.333 228.672 593.016 226.328 590.672C223.984 588.328 222.667 585.149 222.667 581.833V580.167Z" fill="#0D0C6B"/>
<path d="M369.75 582L392.49 581.995L393.03 581.92L393.595 581.755L394.105 581.515L394.295 581.4L394.54 581.225L394.92 580.89L395.34 580.385L395.635 579.885L395.84 579.36L395.955 578.87L396.005 578.25V555.73C396.005 554.78 395.644 553.865 394.995 553.171C394.346 552.477 393.459 552.055 392.511 551.99C391.563 551.925 390.626 552.223 389.889 552.822C389.151 553.422 388.67 554.279 388.54 555.22L388.51 555.73L388.5 569.2L367.4 548.085C366.764 547.447 365.921 547.06 365.023 546.992C364.125 546.925 363.233 547.184 362.51 547.72L362.09 548.085L354.75 555.45L342.4 543.095C341.731 542.424 340.833 542.031 339.886 541.996C338.939 541.96 338.013 542.284 337.296 542.903C336.578 543.522 336.121 544.389 336.017 545.331C335.913 546.273 336.17 547.219 336.735 547.98L337.1 548.4L352.09 563.4C352.725 564.036 353.568 564.423 354.465 564.49C355.361 564.557 356.252 564.3 356.975 563.765L357.395 563.4L364.75 556.035L383.205 574.5H369.75C368.844 574.5 367.968 574.828 367.285 575.424C366.602 576.019 366.158 576.842 366.035 577.74L366 578.25C366 580.32 367.68 582 369.75 582Z" fill="#0D0C6B"/>
</g>
<defs>
<clipPath id="clip0_2_3146">
<rect width="1280" height="720" fill="white"/>
</clipPath>
<clipPath id="clip1_2_3146">
<rect width="1652.44" height="1871.01" fill="white" transform="translate(655.932 -1059.9) rotate(34.5)"/>
</clipPath>
</defs>
</svg>
